<svg viewBox="0 0 512 512" xmlns="http://www.w3.org/2000/svg">
  <path d="M 416.479 221.612 L 416.479 160.478 C 416.479 71.99 344.488 0 256.001 0 C 167.514 0 95.523 71.99 95.523 160.478 L 95.523 221.612 L 57.314 221.612 L 57.314 512 L 454.687 512 L 454.687 221.612 L 416.479 221.612 Z M 278.926 866 Z M 370.628 221.612 L 141.374 221.612 L 141.374 160.478 C 141.374 97.273 192.796 45.851 256.001 45.851 C 319.206 45.851 370.628 97.273 370.628 160.478 L 370.628 221.612 Z" stroke="#000000" fill="#000000"/>
  <path d="M 256 353.499 L 256 419.282 M 256 353.499 C 256 338.15 256 330.476 253.2 324.609 C 250.734 319.457 246.804 315.264 241.968 312.631 C 236.477 309.644 229.285 309.644 214.9 309.644 L 208.478 309.644 C 204.875 309.644 203.077 309.644 201.709 310.391 C 200.495 311.049 199.512 312.098 198.903 313.386 C 198.203 314.852 198.203 316.771 198.203 320.608 L 198.203 394.614 C 198.203 398.45 198.203 400.369 198.903 401.835 C 199.512 403.132 200.495 404.172 201.709 404.83 C 203.077 405.576 204.875 405.576 208.478 405.576 L 227.396 405.576 C 230.866 405.576 232.599 405.576 234.281 405.899 C 235.765 406.18 237.223 406.653 238.603 407.297 C 240.17 408.022 241.609 409.051 244.499 411.107 L 256 419.282 M 256 353.499 C 256 338.15 256 330.476 258.799 324.609 C 261.26 319.457 265.19 315.264 270.026 312.631 C 275.516 309.644 282.709 309.644 297.1 309.644 L 303.522 309.644 C 307.118 309.644 308.916 309.644 310.291 310.391 C 311.498 311.049 312.481 312.098 313.097 313.386 C 313.797 314.852 313.797 316.771 313.797 320.608 L 313.797 394.614 C 313.797 398.45 313.797 400.369 313.097 401.835 C 312.481 403.132 311.498 404.172 310.291 404.83 C 308.916 405.576 307.118 405.576 303.522 405.576 L 284.597 405.576 C 281.129 405.576 279.395 405.576 277.712 405.899 C 276.229 406.18 274.772 406.653 273.39 407.297 C 271.829 408.022 270.385 409.051 267.496 411.107 L 256 419.282" stroke="#ffffff" stroke-linecap="round" stroke-linejoin="round" style="stroke-width: 12px;"/>
</svg>